<svg xmlns="http://www.w3.org/2000/svg" xmlns:svgjs="http://svgjs.com/svgjs" xmlns:xlink="http://www.w3.org/1999/xlink" width="288" height="288"><svg xmlns="http://www.w3.org/2000/svg" width="288" height="288" viewBox="0 0 64 64"><path fill="#ffd42a" d="M60 7H4c-.6 0-1 .4-1 1v36c0 .6.4 1 1 1h24v7h-5c-.6 0-1 .4-1 1v3c0 .6.4 1 1 1h18c.6 0 1-.4 1-1v-3c0-.6-.4-1-1-1h-5v-7h24c.6 0 1-.4 1-1V8c0-.6-.4-1-1-1zM5 9h54v28H49V11c0-.6-.4-1-1-1H9c-.6 0-1 .4-1 1v26H5V9zm35.4 28-9.2-8.8 5.8-5.8 10 9.5V37h-6.6zm6.6-7.8-9.3-8.9c-.4-.4-1-.4-1.4 0l-6.5 6.5-11.1-10.5c-.4-.4-1-.4-1.4 0L10 23.6V12h37v17.2zm-37-2.8 8-8L37.5 37H10V26.4zM40 55H24v-1h16v1zm-6-3h-4v-7h4v7zm1-9H5v-4h54v4H35z" class="color000 svgShape"/><path fill="#ffd42a" d="M35 40h-6c-.6 0-1 .4-1 1s.4 1 1 1h6c.6 0 1-.4 1-1s-.4-1-1-1zm16-27h1c.6 0 1-.4 1-1s-.4-1-1-1h-1c-.6 0-1 .4-1 1s.4 1 1 1zm5 0h1c.6 0 1-.4 1-1s-.4-1-1-1h-1c-.6 0-1 .4-1 1s.4 1 1 1zm-5 3h1c.6 0 1-.4 1-1s-.4-1-1-1h-1c-.6 0-1 .4-1 1s.4 1 1 1zm5 0h1c.6 0 1-.4 1-1s-.4-1-1-1h-1c-.6 0-1 .4-1 1s.4 1 1 1zm-5 3h1c.6 0 1-.4 1-1s-.4-1-1-1h-1c-.6 0-1 .4-1 1s.4 1 1 1zm5 0h1c.6 0 1-.4 1-1s-.4-1-1-1h-1c-.6 0-1 .4-1 1s.4 1 1 1zm-5 10h6c.6 0 1-.4 1-1v-4c0-.6-.4-1-1-1h-6c-.6 0-1 .4-1 1v4c0 .6.4 1 1 1zm1-4h4v2h-4v-2zm-1 7h6c.6 0 1-.4 1-1s-.4-1-1-1h-6c-.6 0-1 .4-1 1s.4 1 1 1zm0 4h6c.6 0 1-.4 1-1s-.4-1-1-1h-6c-.6 0-1 .4-1 1s.4 1 1 1zM31 20c1.7 0 3-1.3 3-3s-1.3-3-3-3-3 1.3-3 3 1.3 3 3 3zm0-4c.6 0 1 .4 1 1s-.4 1-1 1-1-.4-1-1 .4-1 1-1z" class="color000 svgShape"/></svg></svg>