<svg xmlns="http://www.w3.org/2000/svg" width="32" height="32"><g stroke="#373748" stroke-linecap="round" stroke-linejoin="round"><path style="isolation:auto;mix-blend-mode:normal" fill="#f2f2f2" d="M383.28 960.714h.953v8.579h-1.907v-8.579h.954z" color="#000" overflow="visible" transform="rotate(20.989 2754.166 -510.181) skewX(-.022)"/><path style="isolation:auto;mix-blend-mode:normal" fill="#f2f2f2" d="M8.699 1041.19h2.675c1.108 0 2 .85 2 1.907 0 1.056-.892 1.906-2 1.906H8.699c-1.108 0-2-.85-2-1.906s.892-1.906 2-1.906z" color="#000" overflow="visible" transform="translate(0 -1020.362)"/><path style="isolation:auto;mix-blend-mode:normal" fill="#ffd42a" d="m15.576 1025.778 1.78.683a1.426 1.426 0 0 1 .824 1.847l-4.272 11.122-4.452-1.708 4.272-11.122a1.428 1.428 0 0 1 1.848-.822z" color="#000" overflow="visible" transform="translate(0 -1020.362)"/><path fill="none" d="m18.009 8.39-1.78-.682m1.096 2.462-1.78-.683m1.097 2.463-1.78-.683m1.096 2.462-1.78-.683"/><path style="isolation:auto;mix-blend-mode:normal" fill="#f2f2f2" d="M1.5 1043.097h18.073v4.765H.5v-4.765h1z" color="#000" overflow="visible" transform="translate(0 -1020.362)"/><path fill="#373748" fill-rule="evenodd" d="m8.566 17.019 6.232 2.39"/><path fill="none" d="M20.05 25.118h4.767v-.954c0-1.442 1.908-1.484 1.908 0v1.907c0 1.46 1.907 1.576 1.907 0v-.953h2.86"/></g></svg>